# xmcd CD database file generated by LOLA_Freedb v0.9beta0
# 
# Track frame offsets:
#      150
#      18408
#      34355
#      55432
#      71062
#      90281
#      104328
#      123999
#      144035
#      160444
#      178020
#      191297
# 
# Disc length: 2762 seconds
# 
# Revision: 1 
# Processed by: cddbd v1.5.1PL0 Copyright (c) Steve Scherf et al.
# Submitted via: LOLA_Freedb v0.9beta0
# 
DISCID=9e0ac80c
DTITLE=Mariah Carey - Daydream
DYEAR=1995
DGENRE=Blues
TTITLE0=Mariah Carey - Fantasy
TTITLE1=Underneath The Stars
TTITLE2=One Sweet Day
TTITLE3=Open Arm
TTITLE4=Always Be My Baby
TTITLE5=I Am Free
TTITLE6=When I Saw You
TTITLE7=Long Ago
TTITLE8=Melt Away
TTITLE9=Forever
TTITLE10=Daydream Interlude
TTITLE11=Looking In
EXTD=
EXTT0=
EXTT1=
EXTT2=
EXTT3=
EXTT4=
EXTT5=
EXTT6=
EXTT7=
EXTT8=
EXTT9=
EXTT10=
EXTT11=
PLAYORDER=
